<?xml version="1.0" encoding="UTF-8"?>
<svg width="180px" height="44px" viewBox="0 0 180 44" version="1.1" xmlns="http://www.w3.org/2000/svg" xmlns:xlink="http://www.w3.org/1999/xlink">
    <!-- Generator: Sketch 52.6 (67491) - http://www.bohemiancoding.com/sketch -->
    <title>TP</title>
    <desc>Created with Sketch.</desc>
    <g id="Page-1" stroke="none" stroke-width="1" fill="none" fill-rule="evenodd">
        <g id="TP">
            <path d="M47.2449438,15.5011236 L65.4478652,15.5011236 L65.4478652,18.8373034 L58.2905618,18.8373034 L58.2905618,37.5919101 L54.3546067,37.5919101 L54.3546067,18.8373034 L47.2289888,18.8373034 L47.2289888,15.5011236 L47.2449438,15.5011236 Z M64.6701124,21.5966292 L68.0346067,21.5966292 L68.0346067,24.6835955 L68.0982022,24.6835955 C68.2092135,24.2469663 68.4155056,23.8260674 68.7170787,23.4206742 C69.0186517,23.0152809 69.3835955,22.625618 69.8121348,22.2982022 C70.2406742,21.9552809 70.7166292,21.6903371 71.2404494,21.4719101 C71.7640449,21.2694382 72.3035955,21.1602247 72.8431461,21.1602247 C73.2559551,21.1602247 73.5573034,21.1759551 73.7161798,21.1914607 C73.8748315,21.2069663 74.0334831,21.2382022 74.2080899,21.2537079 L74.2080899,24.6523596 C73.9541573,24.605618 73.7002247,24.574382 73.4303371,24.5431461 C73.1606742,24.5119101 72.9067416,24.4964045 72.652809,24.4964045 C72.0496629,24.4964045 71.478427,24.6211236 70.9388764,24.8550562 C70.3993258,25.088764 69.9391011,25.4474157 69.5422472,25.8995506 C69.145618,26.367191 68.8280899,26.9283146 68.5901124,27.614382 C68.3521348,28.3002247 68.2408989,29.0797753 68.2408989,29.9685393 L68.2408989,37.5761798 L64.654382,37.5761798 L64.654382,21.5966292 L64.6701124,21.5966292 Z M90.6970787,37.5919101 L87.1739326,37.5919101 L87.1739326,35.3624719 L87.1103371,35.3624719 C86.6660674,36.1732584 86.0152809,36.8123596 85.1424719,37.2957303 C84.2696629,37.7788764 83.3808989,38.0283146 82.4764045,38.0283146 C80.3339326,38.0283146 78.7786517,37.5139326 77.8265169,36.4694382 C76.8741573,35.4249438 76.3982022,33.8503371 76.3982022,31.745618 L76.3982022,21.5966292 L79.9847191,21.5966292 L79.9847191,31.4026966 C79.9847191,32.8058427 80.2546067,33.8035955 80.8098876,34.3804494 C81.3496629,34.9570787 82.127191,35.2534831 83.111236,35.2534831 C83.872809,35.2534831 84.4919101,35.1442697 84.9995506,34.9103371 C85.5074157,34.6766292 85.9202247,34.3804494 86.221573,33.9905618 C86.5391011,33.6164045 86.7611236,33.148764 86.9040449,32.6186517 C87.0469663,32.0885393 87.1103371,31.5119101 87.1103371,30.8883146 L87.1103371,21.6123596 L90.6970787,21.6123596 L90.6970787,37.5919101 Z M96.8069663,32.4626966 C96.9179775,33.4916854 97.3148315,34.208764 97.9970787,34.6298876 C98.6955056,35.0350562 99.5206742,35.2534831 100.488764,35.2534831 C100.822022,35.2534831 101.202921,35.2222472 101.631461,35.1755056 C102.044477,35.1286597 102.449795,35.0291238 102.837528,34.8793258 C103.218427,34.7388764 103.52,34.5206742 103.773933,34.24 C104.01191,33.9593258 104.122921,33.6008989 104.107191,33.148764 C104.091236,32.6966292 103.916629,32.3224719 103.599326,32.0417978 C103.281798,31.745618 102.885169,31.5274157 102.393258,31.3402247 C101.843904,31.149987 101.281744,30.998971 100.711011,30.8883146 C100.07618,30.7635955 99.4413483,30.6231461 98.7907865,30.4829213 C98.1240449,30.3424719 97.4734831,30.1555056 96.8546067,29.952809 C96.2355056,29.7501124 95.6802247,29.4696629 95.1880899,29.1110112 C94.6961798,28.7680899 94.2995506,28.3159551 94.0139326,27.7703371 C93.7123596,27.2247191 93.5694382,26.5541573 93.5694382,25.7435955 C93.5694382,24.8705618 93.7916854,24.1534831 94.2202247,23.5611236 C94.6485393,22.9685393 95.2040449,22.5008989 95.8548315,22.1422472 C96.5213483,21.7838202 97.251236,21.534382 98.0606742,21.378427 C98.8701124,21.2382022 99.6476404,21.1602247 100.377753,21.1602247 C101.218876,21.1602247 102.02809,21.2537079 102.789888,21.4253933 C103.551685,21.5966292 104.249888,21.8773034 104.868989,22.2826966 C105.487865,22.6723596 105.99573,23.1869663 106.408315,23.8105618 C106.820899,24.4341573 107.074831,25.1979775 107.185843,26.0865169 L103.440674,26.0865169 C103.266067,25.2447191 102.885169,24.6678652 102.266292,24.387191 C101.647191,24.0910112 100.933034,23.9507865 100.139551,23.9507865 C99.885618,23.9507865 99.5842697,23.9662921 99.2350562,24.0130337 C98.9000209,24.0577849 98.570343,24.1361577 98.2510112,24.2469663 C97.9496629,24.3561798 97.6957303,24.5276404 97.4734831,24.7458427 C97.267191,24.9640449 97.1561798,25.2447191 97.1561798,25.6033708 C97.1561798,26.0397753 97.3148315,26.3826966 97.6164045,26.6478652 C97.9177528,26.912809 98.3146067,27.1310112 98.8065169,27.3182022 C99.3558549,27.5085494 99.9180182,27.6596411 100.488764,27.7703371 C101.123596,27.8950562 101.774157,28.0352809 102.440674,28.1755056 C103.091461,28.3159551 103.726292,28.5029213 104.361124,28.705618 C104.995955,28.9083146 105.551236,29.1889888 106.043371,29.5474157 C106.535281,29.9060674 106.93191,30.3424719 107.233483,30.8725843 C107.535056,31.4026966 107.693708,32.0730337 107.693708,32.8525843 C107.693708,33.8035955 107.471685,34.5986517 107.027191,35.2689888 C106.582921,35.9238202 106.011461,36.4694382 105.313258,36.8746067 C104.615056,37.28 103.821573,37.5919101 102.964494,37.7788764 C102.125338,37.9637882 101.268724,38.0578877 100.409438,38.0595506 C99.3779775,38.0595506 98.425618,37.9503371 97.552809,37.7166292 C96.68,37.4826966 95.9182022,37.1397753 95.2833708,36.6876404 C94.6485393,36.22 94.1406742,35.6431461 93.7757303,34.9570787 C93.4107865,34.271236 93.2202247,33.4449438 93.1885393,32.4939326 L96.8069663,32.4939326 L96.8069663,32.4626966 Z M108.645843,21.5966292 L111.359775,21.5966292 L111.359775,16.7950562 L114.946292,16.7950562 L114.946292,21.5966292 L118.18382,21.5966292 L118.18382,24.2314607 L114.946292,24.2314607 L114.946292,32.7746067 C114.946292,33.148764 114.962247,33.4604494 114.993933,33.7411236 C115.025618,34.0062921 115.104944,34.24 115.21618,34.427191 C115.327191,34.6141573 115.501798,34.7546067 115.739775,34.8480899 C115.977978,34.941573 116.279326,34.9883146 116.692135,34.9883146 C116.945843,34.9883146 117.199775,34.9883146 117.453708,34.972809 C117.70764,34.9570787 117.961573,34.9260674 118.215506,34.8635955 L118.215506,37.5919101 C117.818876,37.6386517 117.422022,37.6698876 117.057079,37.7166292 C116.67618,37.7633708 116.295281,37.7788764 115.898427,37.7788764 C114.946292,37.7788764 114.184494,37.6853933 113.613258,37.5139326 C113.042022,37.3424719 112.581798,37.0773034 112.26427,36.734382 C111.931011,36.3914607 111.724719,35.9705618 111.597753,35.4559551 C111.473981,34.876519 111.404913,34.2867372 111.391461,33.694382 L111.391461,24.2624719 L108.677753,24.2624719 L108.677753,21.5966292 L108.645843,21.5966292 Z M120.722921,21.5966292 L124.119101,21.5966292 L124.119101,23.7635955 L124.182697,23.7635955 C124.690562,22.8283146 125.388764,22.1734831 126.293483,21.7680899 C127.197978,21.3629213 128.166067,21.1602247 129.229213,21.1602247 C130.514831,21.1602247 131.625618,21.378427 132.577978,21.8305618 C133.530112,22.2669663 134.323596,22.8750562 134.958427,23.6546067 C135.593258,24.4341573 136.053483,25.3382022 136.370787,26.367191 C136.688315,27.3961798 136.846966,28.5029213 136.846966,29.6721348 C136.846966,30.7478652 136.704045,31.7923596 136.418427,32.7901124 C136.132809,33.8035955 135.70427,34.6921348 135.133034,35.4716854 C134.561573,36.2510112 133.831685,36.8591011 132.942921,37.3267416 C132.054157,37.7946067 131.022697,38.0283146 129.816629,38.0283146 C129.289771,38.0280483 128.763972,37.9811235 128.245393,37.8880899 C127.727452,37.7945147 127.221711,37.6428453 126.737753,37.4359551 C126.261573,37.2332584 125.801348,36.9683146 125.404719,36.6408989 C124.992135,36.3134831 124.658876,35.9393258 124.373034,35.518427 L124.309663,35.518427 L124.309663,43.5004494 L120.722921,43.5004494 L120.722921,21.5966292 Z M133.260225,29.6098876 C133.260225,28.892809 133.165169,28.191236 132.974607,27.5051685 C132.78427,26.8193258 132.498652,26.2269663 132.117753,25.6968539 C131.745689,25.1770077 131.263322,24.7458245 130.705169,24.4341573 C130.133933,24.1222472 129.483146,23.9507865 128.753258,23.9507865 C127.245618,23.9507865 126.102921,24.4651685 125.341124,25.4941573 C124.579326,26.5231461 124.198427,27.8950562 124.198427,29.6098876 C124.198427,30.4204494 124.293708,31.168764 124.5,31.8548315 C124.706292,32.5406742 124.992135,33.1332584 125.404719,33.6321348 C125.801348,34.1310112 126.277528,34.5206742 126.833034,34.8013483 C127.388315,35.0975281 128.039101,35.2377528 128.769213,35.2377528 C129.594382,35.2377528 130.276854,35.0662921 130.84809,34.7388764 C131.419326,34.4114607 131.879551,33.9750562 132.244719,33.4604494 C132.619064,32.9177613 132.888219,32.3096291 133.038202,31.6676404 C133.180899,30.9973034 133.260225,30.3114607 133.260225,29.6098876 Z M139.59236,15.5011236 L143.179101,15.5011236 L143.179101,18.8373034 L139.59236,18.8373034 L139.59236,15.5011236 Z M139.59236,21.5966292 L143.179101,21.5966292 L143.179101,37.5919101 L139.59236,37.5919101 L139.59236,21.5966292 Z M146.384719,15.5011236 L149.971461,15.5011236 L149.971461,37.5919101 L146.384719,37.5919101 L146.384719,15.5011236 Z M160.969213,38.0283146 C159.667865,38.0283146 158.509438,37.8101124 157.493708,37.3892135 C156.478202,36.9683146 155.621124,36.3757303 154.906966,35.6431461 C154.208764,34.8948315 153.669213,34.0062921 153.304045,32.9773034 C152.939101,31.9483146 152.748764,30.8103371 152.748764,29.5786517 C152.748764,28.3626966 152.939101,27.2402247 153.304045,26.211236 C153.669213,25.1824719 154.208764,24.2937079 154.906966,23.5453933 C155.605169,22.7970787 156.478202,22.2202247 157.493708,21.7993258 C158.509438,21.378427 159.667865,21.1602247 160.969213,21.1602247 C162.270562,21.1602247 163.429213,21.378427 164.444944,21.7993258 C165.460449,22.2202247 166.317528,22.812809 167.031685,23.5453933 C167.729888,24.2937079 168.269438,25.1824719 168.634607,26.211236 C168.999551,27.2402247 169.189888,28.3626966 169.189888,29.5786517 C169.189888,30.8103371 168.999551,31.9483146 168.634607,32.9773034 C168.269438,34.0062921 167.729888,34.8948315 167.031685,35.6431461 C166.333483,36.3914607 165.460449,36.9683146 164.444944,37.3892135 C163.429213,37.8101124 162.270562,38.0283146 160.969213,38.0283146 Z M160.969213,35.2377528 C161.762697,35.2377528 162.461124,35.0662921 163.048315,34.7388764 C163.635506,34.4114607 164.111685,33.9750562 164.49236,33.4449438 C164.873258,32.9148315 165.143146,32.3069663 165.333483,31.6366292 C165.50809,30.9660674 165.603371,30.2802247 165.603371,29.5786517 C165.603371,28.892809 165.50809,28.2224719 165.333483,27.5364045 C165.170403,26.8857177 164.884948,26.2720229 164.49236,25.7280899 C164.111685,25.1979775 163.635506,24.7770787 163.048315,24.4496629 C162.461124,24.1222472 161.762697,23.9507865 160.969213,23.9507865 C160.17573,23.9507865 159.477528,24.1222472 158.890337,24.4496629 C158.303146,24.7770787 157.826966,25.2134831 157.446067,25.7280899 C157.065393,26.2579775 156.795506,26.8505618 156.605169,27.5364045 C156.430562,28.2224719 156.335281,28.892809 156.335281,29.5786517 C156.335281,30.2802247 156.430562,30.9660674 156.605169,31.6366292 C156.779551,32.3069663 157.065393,32.9148315 157.446067,33.4449438 C157.826966,33.9750562 158.303146,34.4114607 158.890337,34.7388764 C159.477528,35.0817978 160.17573,35.2377528 160.969213,35.2377528 Z M170.237303,21.5966292 L172.951236,21.5966292 L172.951236,16.7950562 L176.537753,16.7950562 L176.537753,21.5966292 L179.775281,21.5966292 L179.775281,24.2314607 L176.537753,24.2314607 L176.537753,32.7746067 C176.537753,33.148764 176.553708,33.4604494 176.585393,33.7411236 C176.617079,34.0062921 176.696404,34.24 176.80764,34.427191 C176.918652,34.6141573 177.093258,34.7546067 177.331236,34.8480899 C177.569438,34.941573 177.870787,34.9883146 178.283371,34.9883146 C178.537303,34.9883146 178.791236,34.9883146 179.045169,34.972809 C179.299101,34.9570787 179.553034,34.9260674 179.806966,34.8635955 L179.806966,37.5919101 C179.410337,37.6386517 179.013483,37.6698876 178.648539,37.7166292 C178.26764,37.7633708 177.886742,37.7788764 177.489888,37.7788764 C176.537753,37.7788764 175.775955,37.6853933 175.204719,37.5139326 C174.633483,37.3424719 174.173258,37.0773034 173.85573,36.734382 C173.522472,36.3914607 173.31618,35.9705618 173.189213,35.4559551 C173.065441,34.876519 172.996374,34.2867372 172.982921,33.694382 L172.982921,24.2624719 L170.269213,24.2624719 L170.269213,21.5966292 L170.237303,21.5966292 Z" id="Shape" fill="#000000" fill-rule="nonzero"></path>
            <polygon id="Path" fill="#04DA8D" points="43.0552809 15.5011236 26.6139326 15.5011236 21.5355056 0.129438202 16.4411236 15.5011236 0 15.4853933 13.3148315 24.9952809 8.22044944 40.351236 21.5355056 30.8570787 34.8346067 40.351236 29.7561798 24.9952809 43.0552809 15.5008989"></polygon>
            <polygon id="Path" fill="#126849" points="30.8988764 28.4719101 29.7561798 24.9952809 21.5355056 30.8570787"></polygon>
        </g>
    </g>
</svg>