<?xml version="1.0" encoding="UTF-8"?>
<svg width="180px" height="39px" viewBox="0 0 180 39" version="1.1" xmlns="http://www.w3.org/2000/svg" xmlns:xlink="http://www.w3.org/1999/xlink">
    <!-- Generator: Sketch 52.6 (67491) - http://www.bohemiancoding.com/sketch -->
    <title>TripAdvisor_Logo</title>
    <desc>Created with Sketch.</desc>
    <g id="Page-1" stroke="none" stroke-width="1" fill="none" fill-rule="evenodd">
        <g id="TripAdvisor_Logo">
            <path d="M178.988614,25.5366442 C178.430511,25.5366442 177.977227,25.9897685 177.977227,26.5476745 C177.977227,27.1055805 178.430458,27.5587048 178.988614,27.5587048 C179.546609,27.5587048 180,27.1055805 180,26.5476745 C179.999946,25.9897685 179.546609,25.5366442 178.988614,25.5366442 Z M178.988614,27.3983685 C178.518164,27.3983685 178.137567,27.0157063 178.137567,26.5476745 C178.137567,26.0773904 178.52031,25.6969805 178.988614,25.6969805 C179.459063,25.6969805 179.841753,26.079589 179.841753,26.5476745 C179.841753,27.01576 179.45901,27.3983685 178.988614,27.3983685 Z M179.317875,26.374522 C179.317875,26.1906983 179.187415,26.0816804 178.994944,26.0816804 L178.672012,26.0816804 L178.672012,27.0029438 L178.830206,27.0029438 L178.830206,26.6695086 L179.003419,26.6695086 L179.170195,27.0029438 L179.341263,27.0029438 L179.157375,26.63535 C179.255863,26.590413 179.317875,26.5005925 179.317875,26.374522 Z M178.988614,26.5262784 L178.832512,26.5262784 L178.832512,26.2206743 L178.988614,26.2206743 C179.095471,26.2206743 179.159628,26.2740839 179.159628,26.3724307 C179.159574,26.4728688 179.093379,26.5262784 178.988614,26.5262784 Z M57.1249891,15.304561 L57.1249891,12.8592984 L53.3745881,12.8592984 L53.3745881,27.4068947 L57.1249891,27.4068947 L57.1249891,18.6839568 C57.1249891,17.1043493 58.1385211,16.3284075 59.7186848,16.3284075 L61.7713901,16.3284075 L61.7713901,12.8592984 L60.018013,12.8593521 C58.6452871,12.8592984 57.4521581,13.5753421 57.1249891,15.304561 Z M65.2844742,7.10526316 C64.0015468,7.10526316 63.0179476,8.1184384 63.0179476,9.40091426 C63.0179476,10.6534678 64.0015468,11.6666431 65.2844742,11.6666431 C66.5674017,11.6666431 67.5510009,10.6534678 67.5510009,9.40091426 C67.5509472,8.11838477 66.5674017,7.10526316 65.2844742,7.10526316 Z M63.4135115,27.4069483 L67.1554369,27.4069483 L67.1554369,12.8592984 L63.4135115,12.8592984 L63.4135115,27.4069483 Z M84.9795778,20.1330966 C84.9795778,24.286182 81.6119201,27.6527616 77.4573186,27.6527616 C75.7809193,27.6527616 74.260675,27.1034355 73.041851,26.1757372 L73.041851,31.6776316 L69.2999792,31.6776316 L69.2999792,12.8592984 L73.041851,12.8592984 L73.041851,14.090456 C74.260675,13.1628113 75.7809193,12.6134852 77.4573186,12.6134852 C81.6119201,12.6134852 84.9795778,15.9800112 84.9795778,20.1330966 Z M81.2142104,20.1330966 C81.2142104,17.8780926 79.3839092,16.048382 77.1280575,16.048382 C74.8722059,16.048382 73.0419046,17.8780926 73.0419046,20.1330966 C73.0419046,22.3881542 74.8722595,24.2178112 77.1280575,24.2178112 C79.3839092,24.2178112 81.2142104,22.3902991 81.2142104,20.1330966 Z M150.015674,18.8570556 L147.832563,18.2585562 C146.395733,17.8844739 145.837631,17.4441657 145.837631,16.6853836 C145.837631,15.9457989 146.624467,15.4285401 147.749201,15.4285401 C148.820507,15.4285401 149.660772,16.1296226 149.660772,17.027345 L149.660772,17.110677 L153.109753,17.110677 L153.109753,17.027345 C153.109753,14.3875339 150.956574,12.6134316 147.749201,12.6134316 C144.574015,12.6134316 142.266827,14.3853889 142.266827,16.8285065 C142.266827,18.728733 143.526205,20.1608203 145.724283,20.7550298 L147.815504,21.3257519 C149.404144,21.7660601 149.994324,22.2534502 149.994324,23.1276852 C149.994324,24.0489486 149.141185,24.6687905 147.871025,24.6687905 C146.547436,24.6687905 145.655835,23.8308591 145.655835,22.5868854 L145.655835,22.5034998 L141.995232,22.5034998 L141.995232,22.5868854 C141.995232,25.5708028 144.398602,27.6569443 147.841199,27.6569443 C151.157521,27.6569443 153.565182,25.6199762 153.565182,22.8155925 C153.565129,21.4390598 152.949306,19.6393788 150.015674,18.8570556 Z M98.2537143,12.8592984 L101.995532,12.8592984 L101.995532,27.4068947 L98.2537143,27.4068947 L98.2537143,26.1756836 C97.0348903,27.1033819 95.5145923,27.652708 93.8382466,27.652708 C89.6837525,27.652708 86.3160411,24.286182 86.3160411,20.133043 C86.3160411,15.9799039 89.6837525,12.6134316 93.8382466,12.6134316 C95.5145923,12.6134316 97.034944,13.1627577 98.2537143,14.0904023 L98.2537143,12.8592984 Z M98.2537143,20.1330966 C98.2537143,17.8759476 96.4233594,16.048382 94.1675078,16.048382 C91.9116561,16.048382 90.0814085,17.8780926 90.0814085,20.1330966 C90.0814085,22.3881542 91.9116561,24.2178112 94.1675078,24.2178112 C96.4254515,24.2178112 98.2537143,22.3902991 98.2537143,20.1330966 Z M115.506986,7.68236657 L119.248911,7.68236657 L119.248911,27.4090397 L115.506986,27.4090397 L115.506986,26.1778285 C114.288162,27.1055268 112.767917,27.6548529 111.091572,27.6548529 C106.93697,27.6548529 103.569259,24.288327 103.569259,20.1351879 C103.569259,15.9820489 106.936917,12.6155765 111.091572,12.6155765 C112.767917,12.6155765 114.288162,13.1649026 115.506986,14.0925473 L115.506986,7.68236657 Z M115.506986,20.1330966 C115.506986,17.8780926 113.676631,16.048382 111.420779,16.048382 C109.165035,16.048382 107.33468,17.8780926 107.33468,20.1330966 C107.33468,22.3881542 109.162835,24.2178112 111.420779,24.2178112 C113.676631,24.2178112 115.506986,22.3902991 115.506986,20.1330966 Z M136.621914,27.4069483 L140.363732,27.4069483 L140.363732,12.8592984 L136.621914,12.8592984 L136.621914,27.4069483 Z M138.492823,7.10526316 C137.209896,7.10526316 136.226296,8.1184384 136.226296,9.40091426 C136.226296,10.6534678 137.209896,11.6666431 138.492823,11.6666431 C139.77575,11.6666431 140.75935,10.6534678 140.75935,9.40091426 C140.75935,8.11838477 139.77575,7.10526316 138.492823,7.10526316 Z M169.738619,20.1330966 C169.738619,24.286182 166.370961,27.6527616 162.216306,27.6527616 C158.061812,27.6527616 154.6941,24.2862356 154.6941,20.1330966 C154.6941,15.9799575 158.061758,12.6134852 162.216306,12.6134852 C166.370961,12.6134852 169.738619,15.9800112 169.738619,20.1330966 Z M166.302566,20.1330966 C166.302566,17.8780926 164.472211,16.048382 162.21636,16.048382 C159.960508,16.048382 158.13026,17.8780926 158.13026,20.1330966 C158.13026,22.3881542 159.958416,24.2178112 162.21636,24.2178112 C164.472158,24.2178112 166.302566,22.3902991 166.302566,20.1330966 Z M55.2091272,7.68236657 L40.8552632,7.68236657 L40.8552632,11.0189702 L46.1687693,11.0189702 L46.1687693,27.4068947 L49.8978204,27.4068947 L49.8978204,11.0189702 L55.2113265,11.0189702 L55.2113265,7.68236657 L55.2091272,7.68236657 Z M127.799615,23.4226718 L124.470419,12.8593521 L120.540314,12.8593521 L125.533089,27.4069483 L130.036155,27.4069483 L135.058809,12.8593521 L131.128704,12.8593521 L127.799615,23.4226718 Z M175.220993,15.304561 L175.220993,12.8592984 L171.470592,12.8592984 L171.470592,27.4068947 L175.220993,27.4068947 L175.220993,18.6839568 C175.220993,17.1043493 176.234579,16.3284075 177.814635,16.3284075 L179.867341,16.3284075 L179.867341,12.8592984 L178.114071,12.8593521 C176.741238,12.8592984 175.550308,13.5753421 175.220993,15.304561 Z" id="Shape" fill="#000000" fill-rule="nonzero"></path>
            <circle id="Oval" fill="#34E0A1" cx="19.0953947" cy="19.0953947" r="19.0953947"></circle>
            <path d="M30.8591943,15.3256319 L33.1578947,12.8244899 L28.0603213,12.8244899 C25.5083574,11.0811241 22.4263719,10.0657895 19.0932588,10.0657895 C15.7643642,10.0657895 12.6909757,11.0833136 10.1432302,12.8244899 L5.03289474,12.8244899 L7.33159521,15.3256319 C5.92260059,16.611288 5.03930241,18.4632204 5.03930241,20.5194692 C5.03930241,24.3999347 8.18515109,27.5460142 12.0652661,27.5460142 C13.9084876,27.5460142 15.5877793,26.8350716 16.8414412,25.6728278 L19.0933122,28.125 L21.3451833,25.6749639 C22.5988452,26.8372077 24.276001,27.5460142 26.1192225,27.5460142 C29.9993375,27.5460142 33.1494046,24.3999347 33.1494046,20.5194692 C33.1514871,18.4610843 32.2682423,16.6092054 30.8591943,15.3256319 Z M12.0673486,25.2747683 C9.44084206,25.2747683 7.31247898,23.146213 7.31247898,20.5194692 C7.31247898,17.8927255 9.44089546,15.7641167 12.0673486,15.7641167 C14.6938017,15.7641167 16.8222182,17.8927255 16.8222182,20.5194692 C16.8222182,23.146213 14.6938017,25.2747683 12.0673486,25.2747683 Z M19.0953947,20.3811043 C19.0953947,17.2520068 16.8201357,14.5657196 13.8169112,13.4183749 C15.4408834,12.7393135 17.2223776,12.3625615 19.0932588,12.3625615 C20.9641401,12.3625615 22.7477168,12.7393135 24.3717424,13.4183749 C21.3707072,14.5678557 19.0953947,17.2520602 19.0953947,20.3811043 Z M26.1213584,25.2747683 C23.4948519,25.2747683 21.3664354,23.146213 21.3664354,20.5194692 C21.3664354,17.8927255 23.4948519,15.7641167 26.1213584,15.7641167 C28.7478649,15.7641167 30.876228,17.8927255 30.876228,20.5194692 C30.876228,23.146213 28.7478115,25.2747683 26.1213584,25.2747683 Z M26.1213584,18.0246821 C24.744242,18.0246821 23.6289325,19.1400923 23.6289325,20.5173331 C23.6289325,21.8945206 24.744242,23.0099308 26.1213584,23.0099308 C27.4984214,23.0099308 28.6137309,21.8945206 28.6137309,20.5173331 C28.6136775,19.1422284 27.4984214,18.0246821 26.1213584,18.0246821 Z M14.5597211,20.5194692 C14.5597211,21.8966567 13.4444116,23.0120669 12.0673486,23.0120669 C10.6902855,23.0120669 9.57497608,21.8966567 9.57497608,20.5194692 C9.57497608,19.1422284 10.6902855,18.0268182 12.0673486,18.0268182 C13.4444116,18.0246821 14.5597211,19.1422284 14.5597211,20.5194692 Z" id="Shape" fill="#000000" fill-rule="nonzero"></path>
        </g>
    </g>
</svg>