<?xml version="1.0" encoding="UTF-8"?>
<svg width="103px" height="39px" viewBox="0 0 103 39" version="1.1" xmlns="http://www.w3.org/2000/svg" xmlns:xlink="http://www.w3.org/1999/xlink">
    <!-- Generator: Sketch 52.6 (67491) - http://www.bohemiancoding.com/sketch -->
    <title>yelp-logo-full</title>
    <desc>Created with Sketch.</desc>
    <g id="Page-1" stroke="none" stroke-width="1" fill="none" fill-rule="evenodd">
        <g id="yelp-logo-full">
            <path d="M83.5146073,23.2508508 L85.2638067,22.8533665 C85.300756,22.8449939 85.3616832,22.8312083 85.435582,22.8076872 C85.9182824,22.6798785 86.331801,22.3720005 86.5888743,21.9488532 C86.8459477,21.5257059 86.9265288,21.0203124 86.8141083,20.5391021 C86.8117498,20.5285487 86.8093914,20.5185406 86.8066398,20.5079872 C86.7492504,20.2773707 86.6482292,20.0594106 86.5094725,19.865361 C86.3129332,19.6196349 86.0704038,19.4139805 85.7944626,19.2598857 C85.4697798,19.0767789 85.13016,18.9212043 84.7791409,18.7948365 L82.8601316,18.101741 C81.7830964,17.7055807 80.7064544,17.3193897 79.6191992,16.9427006 C78.9144095,16.6945212 78.3173232,16.4767557 77.7984596,16.3177931 C77.7001899,16.2879244 77.5924864,16.2580945 77.5044368,16.228109 C76.8770835,16.0377589 76.4364425,15.958667 76.063411,15.9557463 C75.8141992,15.9464781 75.5661667,15.9909502 75.3366088,16.0859695 C75.0968309,16.1878036 74.881817,16.3383936 74.7053248,16.527887 C74.6176682,16.6264889 74.5351218,16.7294914 74.4580784,16.8365438 C74.386145,16.9456213 74.3197147,17.0584761 74.2599668,17.1746021 C74.1939296,17.2991397 74.1373263,17.4283114 74.0901569,17.5610268 C73.735207,18.5997744 73.5591078,19.6901205 73.5685417,20.7868532 C73.5760102,21.7784026 73.6043118,23.0509599 74.1569802,23.9141165 C74.2902338,24.1356204 74.4690846,24.3271388 74.681347,24.4763268 C75.0752116,24.7447952 75.472614,24.7804274 75.8857395,24.8102183 C76.5036589,24.8545736 77.1023175,24.7052687 77.6986176,24.5697105 L83.5098903,23.2491763 L83.5146073,23.2508508 Z" id="Path" fill="#FF1A1A"></path>
            <path d="M101.980392,13.8733481 C101.521376,12.948418 100.904833,12.1038423 100.156388,11.3746874 C100.059535,11.2821107 99.9558985,11.1964454 99.8462322,11.1183827 C99.7448567,11.0451944 99.6393358,10.9771715 99.5308001,10.9145686 C99.4188725,10.8555305 99.3039301,10.8022761 99.1859728,10.7550239 C98.95345,10.6669942 98.7039684,10.6271626 98.4544869,10.6381481 C98.2155574,10.6509888 97.9826577,10.7137008 97.7719928,10.8219191 C97.4520383,10.9745888 97.1064574,11.2201261 96.6463109,11.6314285 C96.5829983,11.6921035 96.5027271,11.7605993 96.4311236,11.8252029 C96.0516252,12.1683732 95.6295416,12.5914977 95.1271867,13.0841729 C94.3512313,13.8385364 93.5869585,14.5970467 92.8275848,15.3638508 L91.4686264,16.7194715 C91.2195217,16.9671551 90.9930286,17.2347726 90.7914083,17.5193776 C90.6191831,17.7599315 90.4978341,18.0304955 90.433391,18.3159372 C90.3960818,18.5348837 90.4017347,18.7586319 90.4503497,18.9756505 C90.4526108,18.985472 90.454872,18.9948206 90.4571332,19.0046785 C90.5649152,19.4542119 90.8498217,19.8460895 91.2515548,20.0978108 C91.6536648,20.349532 92.1409453,20.4414539 92.611267,20.3542245 C92.6858853,20.3439665 92.7439218,20.3316351 92.7789698,20.3233414 L100.029763,18.718 C100.60146,18.5914846 101.181072,18.4755183 101.694355,18.1893126 C102.038429,17.9975389 102.365921,17.807402 102.590152,17.423418 C102.710371,17.2124741 102.782728,16.9795956 102.803079,16.739842 C102.913499,15.7891942 102.396069,14.7090118 101.980392,13.8733481 Z" id="Path" fill="#FF1A1A"></path>
            <path d="M88.4228059,17.0298193 C88.932211,16.3739399 88.9300153,15.3955752 88.9750274,14.5958131 C89.1257996,11.9236575 89.2853546,9.25116331 89.4108761,6.57754066 C89.4591818,5.56483216 89.5645759,4.56589127 89.5049258,3.54543379 C89.4555222,2.70354133 89.4489351,1.73698815 88.9292834,1.0456741 C88.0122078,-0.173473152 86.0594883,-0.0751815205 84.7270574,0.112524274 C84.319021,0.170190202 83.9098867,0.247830435 83.504412,0.347212942 C83.0989372,0.446557832 82.697488,0.555118738 82.3048216,0.683616332 C81.0265515,1.11146517 79.2297275,1.89730921 78.9267193,3.40621553 C78.7558198,4.25928006 79.1634902,5.13243174 79.4796727,5.91135436 C79.8628243,6.85556341 80.3857696,7.70629572 80.862605,8.59520868 C82.1233094,10.9420201 83.4070688,13.2742364 84.6871686,15.6088978 C85.0695884,16.305779 85.4864076,17.1884853 86.2252646,17.550054 C86.2743021,17.5719468 86.3240716,17.5913192 86.3749389,17.6080585 C86.7061254,17.736857 87.066954,17.7619472 87.4120467,17.6801315 C87.4329059,17.6752414 87.4530333,17.6704265 87.4735266,17.6656492 C87.7919048,17.5771754 88.0802749,17.3999646 88.3064332,17.1536901 C88.3474198,17.1144938 88.3862107,17.0731534 88.4228059,17.0298193 Z" id="Path" fill="#FF1A1A"></path>
            <path d="M88.2395571,24.6167782 C88.0344269,24.3369605 87.7434808,24.1271522 87.4084976,24.0173364 C87.0735144,23.9075206 86.7114314,23.9033787 86.3741899,24.0054238 C86.2947725,24.0308618 86.2176135,24.0619078 86.1430891,24.0982687 C86.0275387,24.1551926 85.9176341,24.2216832 85.8141281,24.2970441 C85.5126432,24.5137434 85.2585829,24.7954672 85.0274821,25.0778873 C84.968766,25.149986 84.9153192,25.2459832 84.8456879,25.3075255 L83.6826563,26.8611479 C83.0232287,27.7315738 82.3728343,28.6041257 81.7284621,29.4907527 C81.307663,30.0629239 80.9436981,30.5460254 80.6565158,30.9737793 C80.6019399,31.0544184 80.5454821,31.144221 80.4935409,31.2156966 C80.149148,31.7332531 79.9541803,32.1111573 79.8540617,32.4476423 C79.779161,32.6712326 79.7554487,32.9083849 79.7851831,33.1418717 C79.8171759,33.3852552 79.9018627,33.6194752 80.0335976,33.8287704 C80.103229,33.9339677 80.1785061,34.0358663 80.2590526,34.1337328 C80.3426102,34.2275674 80.4314372,34.3173701 80.5251573,34.4020411 C80.6248995,34.4947761 80.731793,34.5798137 80.8447087,34.6567874 C81.6494211,35.2003683 82.5297871,35.5911015 83.4556957,35.8934981 C84.2261571,36.1423798 85.0271057,36.2915621 85.837464,36.3373798 C85.9752211,36.3439775 86.113731,36.3414117 86.2511118,36.3289493 C86.3783301,36.3183196 86.5051721,36.3010922 86.6305085,36.2776335 C86.7562213,36.2490433 86.8796758,36.2145884 87.0012483,36.1731692 C87.2379949,36.0877651 87.4532875,35.9547106 87.6335762,35.7831692 C87.8040789,35.6171259 87.9354375,35.4173608 88.0182423,35.1970695 C88.152612,34.8715807 88.2406862,34.458122 88.2982732,33.8441651 C88.3031662,33.7569282 88.3159633,33.6520974 88.3249966,33.5564301 C88.3701629,33.0469375 88.3908641,32.4487419 88.423986,31.745349 C88.4796911,30.6636852 88.5233518,29.5867866 88.5579793,28.5065157 C88.5579793,28.5065157 88.6309981,26.5870483 88.6306217,26.5860586 C88.6475591,26.1437164 88.63288,25.6535773 88.5060381,25.2130311 C88.450333,25.00183 88.3603768,24.8005621 88.2395571,24.6167782 Z" id="Path" fill="#FF1A1A"></path>
            <path d="M101.462391,27.1230505 C101.219993,26.8572001 100.876283,26.5921398 100.334451,26.2643893 C100.256403,26.2207394 100.164472,26.1624893 100.080046,26.1117275 C99.6286445,25.8403079 99.0853121,25.5547021 98.4504238,25.209755 C97.4752023,24.6740278 96.4992304,24.1518094 95.514253,23.6338808 L93.7739385,22.7102715 C93.6835082,22.6838558 93.5919522,22.6186444 93.5067751,22.5776285 C93.1724456,22.417629 92.8178538,22.2681281 92.4501288,22.1994548 C92.3233013,22.1749958 92.1945975,22.1615246 92.0658938,22.1592292 C91.9825929,22.1581756 91.8992919,22.1631426 91.8167414,22.174168 C91.4689037,22.2276767 91.147332,22.3896705 90.8970539,22.6369698 C90.6471511,22.8843067 90.4816749,23.2043432 90.4242648,23.5515104 C90.3976235,23.7723187 90.4062537,23.9959116 90.4486547,24.2142739 C90.534207,24.6770005 90.7413337,25.1348353 90.9555897,25.5358123 L91.8861589,27.2765777 C92.4039756,28.2584371 92.9281712,29.2345391 93.4654999,30.2076308 C93.8118367,30.8424358 94.1003882,31.3854255 94.3705534,31.8358473 C94.4215846,31.9205131 94.4797452,32.0115758 94.5236471,32.0902209 C94.8523481,32.6313291 95.1165097,32.9722499 95.3840483,33.2168398 C95.5574044,33.3839136 95.7652815,33.5114766 95.9926706,33.5901217 C96.232067,33.6695194 96.4849717,33.6977413 96.7360002,33.6732823 C96.863203,33.6582306 96.9900306,33.6364056 97.114982,33.6081837 C97.2384325,33.57507 97.3600069,33.5355593 97.4789546,33.490028 C97.6076584,33.4418626 97.7326098,33.3842899 97.8530585,33.3176861 C98.5588651,32.9225793 99.2095131,32.4360334 99.7877418,31.8708425 C100.481541,31.1886247 101.094666,30.4446949 101.571208,29.5927693 C101.637623,29.4719795 101.695033,29.3470505 101.743063,29.2179823 C101.78809,29.0986976 101.826739,28.9775315 101.859384,28.8541829 C101.887526,28.7289905 101.908914,28.6023682 101.923923,28.4748804 C101.947563,28.2245331 101.91792,27.9719658 101.837621,27.733547 C101.758822,27.5051 101.630869,27.2966718 101.462391,27.1230505 Z" id="Path" fill="#FF1A1A"></path>
            <path d="M41.3604011,10.5624782 C41.3604011,9.13961955 42.5379281,7.97727273 43.9594983,7.97727273 C45.3602908,7.97727273 46.4973959,9.13961955 46.5582177,10.5825032 L46.5582177,30.7632231 C46.5582177,32.1862685 45.3806907,33.3485406 43.9594983,33.3485406 C42.4975061,33.3485406 41.3604011,32.1862685 41.3604011,30.7632231 L41.3604011,10.5624782 Z M38.9433918,23.0276317 C38.9233697,23.428468 38.821748,24.1699535 38.2939953,24.7110395 C37.7252917,25.2922129 36.9537225,25.4325 36.5070404,25.4325 C34.6497815,25.4425125 32.7925225,25.4475188 30.9352635,25.452525 L30.9336769,25.452525 C29.0757757,25.4575313 27.2178745,25.4625749 25.3599356,25.4725874 C25.5223792,25.9735861 25.8472663,26.7351339 26.5782246,27.4365321 C27.0249067,27.8573934 27.4513022,28.0978802 27.6340323,28.19808 C27.8573733,28.3383671 28.6289425,28.739166 29.5832419,28.739166 C30.5984765,28.739166 31.4918783,28.4185418 32.3649559,27.9776181 L32.4379422,27.9404075 C33.0446123,27.6309913 33.6707756,27.3116747 34.334452,27.1960453 C34.9842263,27.0958455 35.6745737,27.2161076 36.1821533,27.6569939 C36.7912789,28.178055 37.0349442,28.9395655 36.8116032,29.7212504 C36.5476513,30.6029483 35.7963687,31.3643468 35.0045129,31.8253702 C34.5578308,32.0857699 34.0705001,32.3061944 33.5832072,32.4866436 C32.9537572,32.7070681 32.3040207,32.8673428 31.6542841,32.9678414 C31.0045476,33.0679664 30.3345245,33.1079417 29.6644637,33.0877673 C29.3396143,33.0877673 28.9944406,33.0877673 28.6492669,33.047792 C28.2837688,33.0078167 27.9183086,32.9274925 27.5731349,32.847542 C27.0045823,32.7272425 26.4766785,32.5467933 25.9487747,32.3061944 C25.4411574,32.0857699 24.9335401,31.8051957 24.4665715,31.4846462 C23.9995651,31.1640967 23.5731696,30.7833975 23.1670607,30.3825239 C22.7812761,29.9816502 22.4158158,29.5408013 22.0909286,29.0598276 C20.9945101,27.4165071 20.4868928,25.3924127 20.5884389,23.428468 C20.6696229,21.5045733 21.3193972,19.5806786 22.4970376,18.0175328 C22.6245747,17.8217286 22.7718694,17.6552147 22.9113442,17.4975552 C22.9717128,17.4292983 23.0306458,17.3626853 23.0858766,17.2960723 C24.5401622,15.5460888 26.4831385,14.9922256 27.2845897,14.7637687 L27.3294695,14.7509542 C29.6238528,14.1096684 31.5324892,14.5304923 32.3040207,14.7509542 C32.6898053,14.8511539 34.8623936,15.5125021 36.5476513,17.2960723 C36.6288731,17.376247 36.8522141,17.6367589 37.1364526,18.0175328 C38.2040847,19.4490216 38.572416,20.7819172 38.697082,21.2334138 L38.6997265,21.2440614 C38.821748,21.6849477 38.9433918,22.2861461 38.9433918,23.0276317 Z M27.0249067,19.7209657 C25.8472663,20.662888 25.5223792,21.8652848 25.4411574,22.2460588 L34.2938789,22.2460588 C34.2126571,21.8853472 33.8674834,20.662888 32.6898053,19.7209657 C31.4918783,18.7790807 30.2329784,18.7189683 29.8471938,18.7189683 C29.4614092,18.7189683 28.2025471,18.7790807 27.0249067,19.7209657 Z M60.6896755,14.4102302 C58.3750434,14.4102302 56.2632769,15.43229 54.7608628,17.0956355 L54.7608628,17.0355231 C54.7000409,15.6928392 53.5629358,14.6106297 52.1821654,14.6106297 C50.7405732,14.6106297 49.583446,15.7529515 49.583446,17.1758102 L49.583446,36.4348569 C49.583446,37.8575287 50.7405732,39 52.1821654,39 C53.6237577,39 54.7812626,37.8575287 54.7812626,36.4348569 L54.7812626,35.6932593 L54.7812626,30.4224992 C56.2836768,32.0659691 58.3750434,33.1079417 60.7100754,33.1079417 C65.3597394,33.1079417 69.1363636,28.9595905 69.1363636,23.7891422 C69.1159637,18.6187312 65.3393395,14.4102302 60.6896755,14.4102302 Z M59.5529482,28.9195031 C56.9130512,28.9195031 54.7608628,26.6549219 54.7608628,23.8292295 C54.7608628,20.9835122 56.8930291,18.7189309 59.5529482,18.7189309 C62.1924674,18.7189309 64.3446559,20.9835122 64.3446559,23.8292295 C64.324256,26.6549219 62.1924674,28.9195031 59.5529482,28.9195031 Z M16.6902464,25.1318261 L15.8374554,26.9755461 C15.4516708,27.7771439 15.0658862,28.5988042 14.7004259,29.4205018 C14.5837688,29.6726823 14.4663183,29.9300933 14.3472056,30.1908667 C12.7243565,33.7449311 10.7983046,37.9632578 6.59898706,38.8595261 C4.5685557,39.300375 1.50258055,38.6992514 0.365535584,36.8155561 C-0.771508622,34.9116864 0.913752807,32.7272425 3.08631852,33.2282412 C3.4289838,33.3033349 3.76593711,33.4688401 4.10574262,33.6354661 C4.67202848,33.9134251 5.24620985,34.1951201 5.86802875,34.0699638 C6.45683004,33.9698388 6.82232809,33.5487907 7.28933448,33.0078167 C7.939071,32.2662191 8.22330948,31.4846462 8.34514216,31.0236228 C8.33498,31.003822 8.32485561,30.9787908 8.31469344,30.9533859 C8.30453127,30.9283546 8.2943691,30.9033234 8.28424471,30.8835225 C7.75566087,29.9129077 7.29409445,29.0450704 6.90849874,28.3201727 C6.65712675,27.8476424 6.43809237,27.4358223 6.25381335,27.0957708 C5.87565982,26.3901883 5.58998579,25.8567985 5.36785365,25.4420268 C4.71936378,24.2309998 4.61222658,24.0310113 4.32489034,23.5085306 C3.6954517,22.3261588 3.02540596,21.183837 2.33505854,20.0415525 C1.58379856,18.799031 0.812233128,17.4162597 1.44166798,15.9533136 C1.94927393,14.7709045 3.24875454,14.169706 4.48733391,14.55048 C5.79417359,14.9408181 6.37288827,16.1648464 6.9141276,17.3095593 C7.0120093,17.5164968 7.10860656,17.7208938 7.20811269,17.9172583 C8.08119024,19.6206912 8.93398124,21.3241241 9.78677223,23.0275569 C9.86183627,23.1969475 9.97656677,23.4277955 10.115966,23.7083697 C10.2405187,23.9589811 10.3847535,24.2492316 10.5380171,24.5706777 C10.6181433,24.7376399 10.6943407,24.8930205 10.763247,25.0334944 C10.8514954,25.2133832 10.9276928,25.3687637 10.9846992,25.4925377 C11.3806459,24.5205778 11.7816549,23.5536242 12.1826639,22.5866706 C12.5836728,21.619717 12.9846818,20.6527634 13.3806286,19.6808036 C13.3916218,19.6265194 13.4861413,19.4191709 13.6285628,19.1066539 C13.7489221,18.8424807 13.9035835,18.5032138 14.070976,18.1176578 C14.1275668,17.9859635 14.1845731,17.8493004 14.2429017,17.7094989 C14.7702389,16.4453459 15.4042977,14.9254257 16.8120791,14.5103926 C17.8272759,14.2097934 18.9643431,14.6105924 19.5531444,15.4522776 C19.8577072,15.8731389 19.9795399,16.3541126 19.9998643,16.8350863 C20.0161842,17.8986904 19.4941736,19.0400782 19.0462449,20.0195101 C18.9371433,20.2580542 18.8324238,20.4869967 18.7409643,20.7029007 C18.7368088,20.7110825 18.7190533,20.750348 18.6871691,20.8208091 C18.5632586,21.0946958 18.2259426,21.8402909 17.6445458,23.0676443 C17.4347291,23.5077087 17.2334124,23.9477357 17.0296024,24.3931426 C16.9178185,24.6374402 16.8053169,24.8833816 16.6902464,25.1318261 Z" id="Shape" fill="#000000"></path>
        </g>
    </g>
</svg>