<?xml version="1.0" encoding="UTF-8"?>
<svg width="607px" height="133px" viewBox="0 0 607 133" version="1.1" xmlns="http://www.w3.org/2000/svg" xmlns:xlink="http://www.w3.org/1999/xlink">
    <!-- Generator: Sketch 52.6 (67491) - http://www.bohemiancoding.com/sketch -->
    <title>Export</title>
    <desc>Created with Sketch.</desc>
    <defs>
        <polygon id="path-1" points="0 0 118.969997 0 118.969997 50.0464264 0 50.0464264"></polygon>
        <polygon id="path-3" points="0 0 118.969997 0 118.969997 50.0464264 0 50.0464264"></polygon>
        <polygon id="path-5" points="0.00014451952 0.37920067 76.7515709 0.37920067 76.7515709 84.9753697 0.00014451952 84.9753697"></polygon>
    </defs>
    <g id="Page-1" stroke="none" stroke-width="1" fill="none" fill-rule="evenodd">
        <g id="Export" transform="translate(-24.000000, -52.000000)">
            <g id="border" transform="translate(511.000000, 92.000000)">
                <g id="Group-3">
                    <mask id="mask-2" fill="white">
                        <use xlink:href="#path-1"></use>
                    </mask>
                    <g id="Clip-2"></g>
                    <path d="M20.099,34.7681413 C23.1801111,34.1195543 25.3212222,30.6936848 24.3945556,27.9108587 C22.9334444,23.5193152 20.6445556,21.2243152 15.2323333,21.5879674 C9.76122222,21.9560543 6.08122222,25.1391196 3.91677778,29.734663 C1.94011111,33.9332935 2.999,38.2694022 6.73788889,42.2850978 C7.95788889,43.5955761 9.41677778,44.7419674 10.9267778,45.7142935 C14.5812222,48.0636196 18.6356667,48.1345761 22.7867778,47.4981848 C27.3456667,46.7974891 30.9978889,44.2740978 34.3945556,41.4790761 C40.2901111,36.6296413 45.6156667,31.1604457 50.6734444,25.447337 C56.8078889,18.5157717 63.5156667,12.2239239 71.579,7.5873587 C78.3834444,3.67477174 85.6267778,0.695706522 93.5445556,0.0848152174 C97.5323333,-0.223402174 101.567889,0.271076087 105.262333,2.16361957 C105.891222,2.4851413 106.587889,2.67583696 107.211222,3.00401087 C112.594556,5.83007609 116.540111,9.98768478 118.152333,15.8959239 C119.933444,22.4194891 118.871222,28.5029022 114.310111,33.7503587 C113.230111,34.9920978 112.235667,36.3280761 111.035667,37.4445326 C106.522333,41.643163 101.127889,43.399337 95.0012222,42.8538587 C91.2412222,42.5179239 88.6912222,40.160837 86.5301111,37.3791196 C82.7034444,32.4498587 82.5956667,27.0660326 85.069,21.5702283 C87.2523333,16.7130326 95.3034444,14.4036196 99.5601111,17.5977717 C103.011222,20.1865761 103.734556,22.3407717 102.254556,25.7189674 C101.034556,28.5062283 97.4223333,29.3410761 95.0801111,27.4751413 C93.9145556,26.5482717 93.5978889,23.9339674 94.5312222,22.948337 C95.5956667,21.8241196 97.6078889,21.7919674 98.8134444,22.9272717 C99.259,23.3474674 99.6034444,23.8763152 99.9956667,24.354163 C100.646778,22.0624891 99.6534444,19.7841196 97.5912222,18.8450543 C94.5856667,17.4735978 91.5201111,18.1986848 89.1367778,21.0025761 C87.9167778,22.4372283 86.9145556,24.0348587 86.9501111,26.0659891 C86.9601111,26.6835326 86.7401111,27.3044022 86.6345556,27.9230543 C85.9745556,31.8245543 87.4745556,34.8257935 90.5356667,37.151837 C95.3056667,40.7783804 100.309,40.6763804 105.370111,37.8846848 C111.304556,34.6095978 114.364556,29.3543804 114.841222,22.7665109 C115.221222,17.5112935 113.277889,13.0365978 109.371222,9.27479348 C105.377889,5.42872826 100.657889,3.79672826 95.3023333,3.47409783 C95.1445556,3.46633696 94.9834444,3.41977174 94.8323333,3.43751087 C89.8245556,4.06281522 84.8134444,4.68811957 80.0967778,6.63388043 C78.7145556,7.2048587 77.3923333,7.92883696 75.9978889,8.45990217 C71.1867778,10.2914674 67.3623333,13.5743152 63.5145556,16.8216848 C61.969,18.1255109 60.4956667,19.5169239 58.6045556,21.2154457 C59.9501111,21.1677717 60.7801111,21.166663 61.6045556,21.1056848 C66.1601111,20.7708587 69.7378889,22.5469891 72.4656667,26.1214239 C75.7123333,30.3743804 74.0867778,37.381337 69.3123333,39.7905326 C66.5212222,41.1996848 62.9267778,40.3415543 61.0601111,37.8214891 C59.5578889,35.7914674 59.7356667,31.9587065 61.4234444,30.1459891 C62.5201111,28.9707717 63.8234444,28.3709674 65.4523333,28.7978152 C67.569,29.352163 68.3401111,31.8755543 66.8267778,33.4598804 C66.4412222,33.8645543 65.6601111,34.2902935 65.2345556,34.15725 C64.6723333,33.9798587 64.169,33.3224022 63.8545556,32.7536413 C63.639,32.3633804 63.789,31.7735543 63.7745556,31.213663 C62.2334444,32.2902065 61.7723333,33.8202065 62.4912222,35.2182717 C63.2823333,36.7549239 65.6401111,37.9035326 67.3045556,37.4079457 C71.1345556,36.2682065 73.6634444,33.0274891 71.359,28.4164239 C69.2967778,24.2898587 64.9212222,22.390663 60.4412222,23.8142283 C56.2578889,25.1424457 52.829,27.5771413 49.679,30.4054239 C46.2923333,33.4465761 43.3501111,36.9844239 39.9145556,39.9634891 C35.2156667,44.036837 30.2345556,47.9815761 24.0745556,49.4727717 C17.9134444,50.9628587 12.0923333,49.4949457 6.899,45.7098587 C4.74677778,44.138837 3.15788889,42.0955109 1.73677778,39.9379891 C0.0623333333,37.3935326 -0.421,34.4588152 0.372333333,31.5462717 C1.729,26.5671196 4.21455556,22.314163 8.79344444,19.4670326 C11.5656667,17.7441196 14.5045556,17.4070761 17.4023333,18.4215326 C22.089,20.0635109 25.6878889,23.0082065 26.5867778,28.2534457 C27.0967778,31.2280761 25.809,33.610663 23.7278889,35.6329239 C22.2756667,37.0431848 20.5412222,37.5321196 18.5334444,37.3125978 C16.2578889,37.0631413 14.7934444,35.6628587 14.5601111,33.3589891 C14.3856667,31.6493804 15.349,30.2657283 16.8678889,30.0439891 C18.3067778,29.8344457 20.0156667,31.2036848 20.169,32.7569674 C20.2312222,33.3734022 20.1312222,34.0064674 20.099,34.7681413" id="Fill-1" fill="#FFFFFF" mask="url(#mask-2)"></path>
                </g>
            </g>
            <g id="border" transform="translate(84.000000, 117.588235) scale(-1, 1) translate(-84.000000, -117.588235) translate(24.000000, 92.000000)">
                <g id="Group-3">
                    <mask id="mask-4" fill="white">
                        <use xlink:href="#path-3"></use>
                    </mask>
                    <g id="Clip-2"></g>
                    <path d="M20.099,34.7681413 C23.1801111,34.1195543 25.3212222,30.6936848 24.3945556,27.9108587 C22.9334444,23.5193152 20.6445556,21.2243152 15.2323333,21.5879674 C9.76122222,21.9560543 6.08122222,25.1391196 3.91677778,29.734663 C1.94011111,33.9332935 2.999,38.2694022 6.73788889,42.2850978 C7.95788889,43.5955761 9.41677778,44.7419674 10.9267778,45.7142935 C14.5812222,48.0636196 18.6356667,48.1345761 22.7867778,47.4981848 C27.3456667,46.7974891 30.9978889,44.2740978 34.3945556,41.4790761 C40.2901111,36.6296413 45.6156667,31.1604457 50.6734444,25.447337 C56.8078889,18.5157717 63.5156667,12.2239239 71.579,7.5873587 C78.3834444,3.67477174 85.6267778,0.695706522 93.5445556,0.0848152174 C97.5323333,-0.223402174 101.567889,0.271076087 105.262333,2.16361957 C105.891222,2.4851413 106.587889,2.67583696 107.211222,3.00401087 C112.594556,5.83007609 116.540111,9.98768478 118.152333,15.8959239 C119.933444,22.4194891 118.871222,28.5029022 114.310111,33.7503587 C113.230111,34.9920978 112.235667,36.3280761 111.035667,37.4445326 C106.522333,41.643163 101.127889,43.399337 95.0012222,42.8538587 C91.2412222,42.5179239 88.6912222,40.160837 86.5301111,37.3791196 C82.7034444,32.4498587 82.5956667,27.0660326 85.069,21.5702283 C87.2523333,16.7130326 95.3034444,14.4036196 99.5601111,17.5977717 C103.011222,20.1865761 103.734556,22.3407717 102.254556,25.7189674 C101.034556,28.5062283 97.4223333,29.3410761 95.0801111,27.4751413 C93.9145556,26.5482717 93.5978889,23.9339674 94.5312222,22.948337 C95.5956667,21.8241196 97.6078889,21.7919674 98.8134444,22.9272717 C99.259,23.3474674 99.6034444,23.8763152 99.9956667,24.354163 C100.646778,22.0624891 99.6534444,19.7841196 97.5912222,18.8450543 C94.5856667,17.4735978 91.5201111,18.1986848 89.1367778,21.0025761 C87.9167778,22.4372283 86.9145556,24.0348587 86.9501111,26.0659891 C86.9601111,26.6835326 86.7401111,27.3044022 86.6345556,27.9230543 C85.9745556,31.8245543 87.4745556,34.8257935 90.5356667,37.151837 C95.3056667,40.7783804 100.309,40.6763804 105.370111,37.8846848 C111.304556,34.6095978 114.364556,29.3543804 114.841222,22.7665109 C115.221222,17.5112935 113.277889,13.0365978 109.371222,9.27479348 C105.377889,5.42872826 100.657889,3.79672826 95.3023333,3.47409783 C95.1445556,3.46633696 94.9834444,3.41977174 94.8323333,3.43751087 C89.8245556,4.06281522 84.8134444,4.68811957 80.0967778,6.63388043 C78.7145556,7.2048587 77.3923333,7.92883696 75.9978889,8.45990217 C71.1867778,10.2914674 67.3623333,13.5743152 63.5145556,16.8216848 C61.969,18.1255109 60.4956667,19.5169239 58.6045556,21.2154457 C59.9501111,21.1677717 60.7801111,21.166663 61.6045556,21.1056848 C66.1601111,20.7708587 69.7378889,22.5469891 72.4656667,26.1214239 C75.7123333,30.3743804 74.0867778,37.381337 69.3123333,39.7905326 C66.5212222,41.1996848 62.9267778,40.3415543 61.0601111,37.8214891 C59.5578889,35.7914674 59.7356667,31.9587065 61.4234444,30.1459891 C62.5201111,28.9707717 63.8234444,28.3709674 65.4523333,28.7978152 C67.569,29.352163 68.3401111,31.8755543 66.8267778,33.4598804 C66.4412222,33.8645543 65.6601111,34.2902935 65.2345556,34.15725 C64.6723333,33.9798587 64.169,33.3224022 63.8545556,32.7536413 C63.639,32.3633804 63.789,31.7735543 63.7745556,31.213663 C62.2334444,32.2902065 61.7723333,33.8202065 62.4912222,35.2182717 C63.2823333,36.7549239 65.6401111,37.9035326 67.3045556,37.4079457 C71.1345556,36.2682065 73.6634444,33.0274891 71.359,28.4164239 C69.2967778,24.2898587 64.9212222,22.390663 60.4412222,23.8142283 C56.2578889,25.1424457 52.829,27.5771413 49.679,30.4054239 C46.2923333,33.4465761 43.3501111,36.9844239 39.9145556,39.9634891 C35.2156667,44.036837 30.2345556,47.9815761 24.0745556,49.4727717 C17.9134444,50.9628587 12.0923333,49.4949457 6.899,45.7098587 C4.74677778,44.138837 3.15788889,42.0955109 1.73677778,39.9379891 C0.0623333333,37.3935326 -0.421,34.4588152 0.372333333,31.5462717 C1.729,26.5671196 4.21455556,22.314163 8.79344444,19.4670326 C11.5656667,17.7441196 14.5045556,17.4070761 17.4023333,18.4215326 C22.089,20.0635109 25.6878889,23.0082065 26.5867778,28.2534457 C27.0967778,31.2280761 25.809,33.610663 23.7278889,35.6329239 C22.2756667,37.0431848 20.5412222,37.5321196 18.5334444,37.3125978 C16.2578889,37.0631413 14.7934444,35.6628587 14.5601111,33.3589891 C14.3856667,31.6493804 15.349,30.2657283 16.8678889,30.0439891 C18.3067778,29.8344457 20.0156667,31.2036848 20.169,32.7569674 C20.2312222,33.3734022 20.1312222,34.0064674 20.099,34.7681413" id="Fill-1" fill="#FFFFFF" mask="url(#mask-4)"></path>
                </g>
            </g>
            <g id="Epicure-outline" transform="translate(177.000000, 55.000000)">
                <g id="Group-3">
                    <mask id="mask-6" fill="white">
                        <use xlink:href="#path-5"></use>
                    </mask>
                    <g id="Clip-2"></g>
                    <path d="M73.6068262,65.8344867 C74.6545927,65.8344867 75.4407789,66.2297305 75.9653848,67.0245934 C76.4885454,67.8179979 76.7515709,68.8432982 76.7515709,70.0990358 C76.7515709,72.082547 76.2761017,73.767073 75.3266085,75.1569893 C74.37567,76.5454472 72.754161,77.8026432 70.4620815,78.9256606 C66.5947391,80.77791 61.5842474,82.2480418 55.4262706,83.338973 C49.2668487,84.4299042 43.2057001,84.9753697 37.2457151,84.9753697 C28.9907601,84.9753697 22.0783915,84.0332019 16.5100544,82.1488663 C10.9402721,80.2645307 6.79689752,77.669923 4.07848536,74.3635849 C1.358628,71.0587052 0.00014451952,67.3221201 0.00014451952,63.1567466 C0.00014451952,57.4716535 1.81820008,52.6280942 5.45431119,48.6275271 C9.0904223,44.6284185 14.4463157,41.7348257 21.5219914,39.9496656 C17.6560942,38.8266483 14.6919989,36.8431371 12.6282601,33.999132 C10.5645214,31.1580439 9.53265203,27.9829676 9.53265203,24.4782783 C9.53265203,19.7178514 11.0226483,15.5028901 14.004086,11.8333944 C16.9840785,8.16389872 20.9973855,5.33739527 26.0425619,3.35388408 C31.0862932,1.37037288 36.622836,0.378617284 42.6507451,0.378617284 C50.7741873,0.378617284 56.8671303,2.14773425 60.9295739,5.68450973 C64.9905724,9.22274367 67.0225169,13.802321 67.0225169,19.4203248 C67.0225169,23.3231747 66.3172616,26.4792911 64.9096415,28.8915907 C63.499131,31.3068073 61.4859741,32.5114986 58.8658352,32.5114986 C57.0304373,32.5114986 55.5895777,32.1002118 54.5418112,31.2718041 C53.4925995,30.4463135 52.9694388,29.206619 52.9694388,27.5527207 C52.9694388,26.4297033 53.1327459,25.2075104 53.4608052,23.8832249 C53.7874193,21.7013626 53.9521715,20.2137292 53.9521715,19.4203248 C53.9521715,17.0401113 53.0677121,15.1061879 51.2987932,13.6185545 C49.5298742,12.1309211 46.5816761,11.3871044 42.4541986,11.3871044 C36.8844163,11.3871044 32.4303247,12.5772111 29.0890334,14.9574246 C25.7477421,17.337638 24.0770965,20.5462591 24.0770965,24.5774539 C24.0770965,27.6868994 25.3373067,30.2479623 27.8606175,32.2635597 C30.3824831,34.2820741 34.4940634,35.3875899 40.1939133,35.585941 C41.6333277,35.6530303 42.6507451,35.9826432 43.2403848,36.5776966 C43.8300244,37.1727499 44.1248442,38.1645055 44.1248442,39.5529634 C44.1248442,43.916688 42.1593788,46.1335535 38.2284478,46.1977259 C32.7887331,46.3304461 28.2855049,47.0903059 24.7158727,48.4787638 C21.1447954,49.8672216 18.5564508,51.637797 16.9522842,53.7846562 C15.3466723,55.9344323 14.544589,58.2329718 14.544589,60.6773576 C14.544589,64.7771002 16.4435755,67.8675857 20.2444388,69.9502724 C24.043857,72.0329592 30.0717661,73.0743026 38.3267211,73.0743026 C43.7635454,73.0743026 49.5125319,72.428203 55.5736806,71.1403792 C61.6319388,69.8510969 66.8259703,68.2817895 71.1499944,66.4295401 C72.1327271,66.0328378 72.9507076,65.8344867 73.6068262,65.8344867" id="Fill-1" fill="#FFFFFF" mask="url(#mask-6)"></path>
                </g>
                <path d="M89.691358,71.8191604 C91.6986202,69.7395048 93.2962963,67.1646932 94.4814815,64.0932692 C95.6666667,61.0247578 96.2592593,57.8062433 96.2592593,54.4391819 C96.2592593,52.4585576 95.8641975,50.9570696 95.0740741,49.9332616 C94.2839506,48.9109099 93.2309368,48.3982777 91.9135802,48.3982777 C89.5432099,48.3982777 86.6790123,50.9090103 83.3209877,55.9246502 C83.2541757,58.8315076 83.2222222,63.0883936 83.2222222,68.6982207 C83.2222222,71.7361489 83.1873638,74.0808586 83.1234568,75.7308934 C85.4938272,75.2022415 87.6826434,73.8988159 89.691358,71.8191604 M68.7037037,108.658773 C69.8888889,100.900842 70.6456064,91.2452985 70.9753086,79.6921421 C68.1445171,86.2922814 65.9048656,92.5996961 64.2592593,98.6071044 C62.6136529,104.614513 61.7901235,109.663648 61.7901235,113.758881 C61.7901235,115.870576 62.037037,117.487115 62.5308642,118.61141 C63.0246914,119.732793 63.6027596,120.294941 64.2592593,120.294941 C66.037037,120.294941 67.5185185,116.415247 68.7037037,108.658773 M124.259259,63.8456911 C124.753086,64.6379409 125,65.7272842 125,67.1151776 C125,69.7555246 124.374001,71.8031406 123.123457,73.2536567 C120.291213,76.7547015 117.246914,79.6266067 113.987654,81.8693725 C110.728395,84.115051 107.024691,85.2378902 102.876543,85.2378902 C99.3863471,85.2378902 96.5555556,83.9854366 94.382716,81.474704 C90.6296296,83.9184449 86.7109659,85.1708985 82.6296296,85.2378902 C81.7726943,97.9794213 79.8307916,108.623821 76.8024691,117.175457 C73.7741467,125.725638 69.3282498,130 63.4691358,130 C59.9135802,130 57.281772,128.712594 55.5679012,126.137783 C53.8569354,123.562971 53,119.997847 53,115.442411 C53,108.971886 54.4814815,101.429494 57.4444444,92.8137783 C60.4074074,84.1980624 64.9825708,74.7070854 71.1728395,64.3423036 C71.1728395,54.7042361 71.10748,48.0021529 70.9753086,44.2389666 C70.9084967,42.325334 71.6666667,40.8078263 73.2469136,39.6835307 C74.8271605,38.5621478 76.8024691,38 79.1728395,38 C80.5555556,38 81.5591866,38.2810739 82.1851852,38.8417653 C82.8097313,39.4039131 83.1554103,40.5092763 83.2222222,42.1593111 C83.2222222,43.8108023 83.2541757,45.0312164 83.3209877,45.8234661 C85.4270153,43.1831191 87.5010893,41.2855062 89.5432099,40.1291712 C91.583878,38.9742924 93.7567175,38.3961249 96.0617284,38.3961249 C99.7480029,38.3961249 102.761801,39.8815931 105.098765,42.8525296 C107.43573,45.8234661 108.604938,49.7191794 108.604938,54.5382131 C108.604938,58.0392579 108.044299,61.4383588 106.925926,64.7384284 C105.8061,68.0399544 104.259259,71.0443868 102.283951,73.7502691 C103.666667,74.146394 104.818446,74.3430001 105.740741,74.3430001 C107.91358,74.3430001 109.987654,73.5507503 111.962963,71.9677072 C113.938272,70.3832078 116.471314,67.7428608 119.567901,64.0452099 C120.358025,63.1204331 121.246914,62.6587729 122.234568,62.6587729 C123.090051,62.6587729 123.765432,63.0534414 124.259259,63.8456911" id="Fill-4" fill="#FFFFFF"></path>
                <path d="M124.942073,30.3939394 C123.533537,29.1183261 122.829268,27.3362193 122.829268,25.046176 C122.829268,22.7575758 123.749552,20.8441558 125.596037,19.3059163 C127.439562,17.7691198 129.735832,17 132.487805,17 C134.967539,17 136.979735,17.5887446 138.52439,18.7662338 C140.066087,19.9437229 140.838415,21.6118326 140.838415,23.7705628 C140.838415,26.3881674 139.965477,28.4646465 138.222561,30.001443 C136.476686,31.5382395 134.162661,32.3073593 131.280488,32.3073593 C128.463415,32.3073593 126.35061,31.6695527 124.942073,30.3939394 M120.967988,80.4862915 C118.988343,77.4776335 118,73.4862915 118,68.5151515 C118,65.5714286 118.384684,61.7936508 119.157012,57.1818182 C119.926381,52.5699856 120.917683,48.2698413 122.125,44.2784993 C122.728659,42.1861472 123.533537,40.7460317 124.539634,39.961039 C125.545732,39.1760462 127.155488,38.7835498 129.368902,38.7835498 C132.789634,38.7835498 134.5,39.8961039 134.5,42.1197691 C134.5,43.7561328 133.860832,47.5497835 132.588415,53.5021645 C130.978659,60.6984127 130.17378,65.5714286 130.17378,68.1226551 C130.17378,70.0851371 130.4401,71.5901876 130.978659,72.6349206 C131.514258,73.6825397 132.419745,74.2049062 133.695122,74.2049062 C134.902439,74.2049062 136.411585,73.3881674 138.222561,71.7532468 C140.033537,70.1183261 142.448171,67.5324675 145.466463,64.001443 C146.271341,63.0851371 147.176829,62.6277056 148.182927,62.6277056 C149.052905,62.6277056 149.742378,63.018759 150.245427,63.8037518 C150.748476,64.5887446 151,65.6681097 151,67.041847 C151,69.6594517 150.362312,71.6883117 149.088415,73.1255411 C142.448171,81.04329 136.242916,85 130.47561,85 C126.113881,85 122.944674,83.4963925 120.967988,80.4862915" id="Fill-6" fill="#FFFFFF"></path>
                <path d="M145.391398,78.5794486 C141.796648,74.9657477 140,70.1972711 140,64.2711462 C140,58.9985325 141.054712,54.375121 143.165591,50.4037843 C145.275016,46.4324476 148.012903,43.3702813 151.376344,41.2230306 C154.739785,39.0743435 158.267615,38 161.962745,38 C165.588046,38 168.405946,39.0585444 170.419355,41.1741968 C172.431309,43.2898492 173.436559,46.0087426 173.436559,49.3294408 C173.436559,52.0641334 172.825553,54.375121 171.607906,56.2624036 C170.385895,58.1525588 168.787097,59.0962001 166.808602,59.0962001 C165.554586,59.0962001 164.549336,58.801761 163.791398,58.2171917 C163.03346,57.6311862 162.653763,56.8168108 162.653763,55.7755019 C162.653763,55.3201986 162.719228,54.7973897 162.851613,54.2128204 C162.983997,53.6253786 163.081467,53.2031099 163.148387,52.9417054 C163.478621,51.9664658 163.643011,51.0544228 163.643011,50.2084491 C163.643011,49.3624754 163.427704,48.7104006 163,48.2550973 C162.570841,47.7997939 161.962745,47.5714241 161.169892,47.5714241 C159.652562,47.5714241 158.234156,48.2392981 156.916129,49.5736098 C155.596648,50.9079214 154.541935,52.7147719 153.750538,54.9941612 C152.95914,57.2735504 152.563441,59.7798732 152.563441,62.5131295 C152.563441,70.0665688 155.893422,73.8425703 162.554839,73.8425703 C165.257812,73.8425703 168.176091,72.9491991 171.309677,71.1567115 C174.441809,69.3670965 177.525933,66.6812377 180.55914,63.1005714 C181.350538,62.1885284 182.24086,61.7332251 183.230108,61.7332251 C184.08697,61.7332251 184.763441,62.1224592 185.258065,62.9037999 C185.752688,63.6851407 186,64.7594842 186,66.1268305 C186,68.6029912 185.371537,70.6195398 184.12043,72.1822213 C181.020304,75.959659 177.309171,78.8724514 172.991398,80.9249071 C168.67217,82.9759266 164.499873,84 160.477419,84 C154.013852,84 148.986148,82.1945858 145.391398,78.5794486" id="Fill-8" fill="#FFFFFF"></path>
                <path d="M180.834254,79.9469214 C178.944751,77.2453478 178,73.8759211 178,69.8386412 C178,64.955414 178.330517,60.4800799 178.994475,56.4097665 C179.655509,52.3423255 180.749431,48.0278506 182.276243,43.4706507 C182.937277,41.5159236 183.867403,40.1170226 185.060773,39.2696391 C186.254144,38.425128 188.143646,38 190.729282,38 C192.187358,38 193.19792,38.2297989 193.762431,38.685088 C194.325479,39.1403772 194.607735,39.824029 194.607735,40.7346072 C194.607735,41.2573998 194.242119,43.0153616 193.513812,46.0099288 C192.849854,48.4185088 192.320442,50.5987261 191.922652,52.552017 C190.596198,59.3899713 189.933702,63.9471712 189.933702,66.2250531 C189.933702,67.5923567 190.09896,68.5532034 190.430939,69.1061571 C190.761456,69.660547 191.290868,69.9363057 192.020637,69.9363057 C193.016575,69.9363057 194.259669,68.9610965 195.751381,67.0063694 C197.243094,65.0530786 198.834254,62.0901087 200.524862,58.118896 C202.21547,54.1491195 203.856354,49.2658923 205.447514,43.4706507 C205.976926,41.5159236 206.790055,40.1170226 207.883978,39.2696391 C208.977901,38.425128 210.618785,38 212.80663,38 C214.330517,38 215.392265,38.1809667 215.98895,38.537155 C216.585635,38.8962158 216.882515,39.5626327 216.882515,40.5407144 C216.882515,42.167978 216.053299,46.6289497 214.39779,53.9193206 C212.540461,62.2552766 211.61326,67.3970276 211.61326,69.3503185 C211.61326,70.5869239 211.877966,71.5477707 212.40884,72.2314225 C212.938252,72.9150743 213.634384,73.2569002 214.497238,73.2569002 C215.822229,73.2569002 217.39584,72.4597852 219.220994,70.8641189 C221.043224,69.2684526 223.479688,66.6817784 226.530387,63.1012239 C227.325967,62.1892094 228.219532,61.7324841 229.21547,61.7324841 C230.076861,61.7324841 230.756906,62.1231423 231.254144,62.9044586 C231.749919,63.6857749 232,64.7600849 232,66.1273885 C232,68.7312976 231.369678,70.7520919 230.110497,72.1825902 C227.258694,75.6338829 224.191908,78.4675909 220.911602,80.6794055 C217.629834,82.8940927 213.89909,84 209.723757,84 C206.541436,84 204.202957,82.7949919 202.712707,80.3878481 C201.219532,77.9792681 200.475138,74.5911702 200.475138,70.2292994 C199.346116,74.6572374 197.656971,78.0596978 195.403315,80.4352442 C193.148196,82.8122268 190.729282,84 188.143646,84 C185.160221,84 182.723757,82.6499313 180.834254,79.9469214" id="Fill-10" fill="#FFFFFF"></path>
                <path d="M224.561355,80.0934183 C223.519958,77.4909454 223,73.3215312 223,67.5923567 C223,59.128575 224.241381,51.0870488 226.727106,43.4692144 C227.331502,41.5819908 228.321051,40.1974522 229.698718,39.3184713 C231.073422,38.4394904 233.005117,38 235.490842,38 C236.832956,38 237.773621,38.1637317 238.311355,38.4883227 C238.84909,38.8143499 239.117216,39.4319346 239.117216,40.343949 C239.117216,41.3866617 238.613553,43.7306107 237.606227,47.3757962 C236.93517,49.9811415 236.397436,52.2590234 235.994505,54.2123142 C235.591575,56.1656051 235.255306,58.5756213 234.987179,61.4394904 C237.203297,55.8410141 239.68754,51.2823779 242.441392,47.7664544 C245.193762,44.2505308 247.897247,41.7442862 250.550366,40.2462845 C253.202004,38.7482828 255.637363,38 257.85348,38 C262.217572,38 264.401099,40.1170226 264.401099,44.3481953 C264.401099,45.1955789 264.09742,47.245098 263.494505,50.5010616 C262.956771,53.1049707 262.688645,54.7336705 262.688645,55.3842887 C262.688645,57.6636068 263.528577,58.8025478 265.205478,58.8025478 C267.085326,58.8025478 269.50439,57.3706132 272.459707,54.5053079 C273.332229,53.6593606 274.237341,53.2356688 275.179487,53.2356688 C276.052009,53.2356688 276.740842,53.6105283 277.243024,54.358811 C277.748168,55.10853 278,56.1009741 278,57.3375796 C278,59.7461596 277.327462,61.6348195 275.985348,63.0021231 C274.104019,64.8907831 271.905678,66.502248 269.387363,67.836518 C266.869048,69.1722243 264.199634,69.8372049 261.379121,69.8372049 C257.817927,69.8372049 255.115923,68.9596603 253.270147,67.2002623 C251.422888,65.4437367 250.5,63.0681903 250.5,60.0721868 C250.5,59.0955414 250.600733,58.118896 250.802198,57.1422505 C250.937002,55.8410141 251.003663,54.960597 251.003663,54.5053079 C251.003663,53.4640315 250.634804,52.9426752 249.895604,52.9426752 C248.888278,52.9426752 247.560978,54.0327838 245.916667,56.2144374 C244.270874,58.3960909 242.642857,61.277195 241.031136,64.8577495 C239.419414,68.4397402 238.10989,72.2156238 237.102564,76.1854003 C236.363365,79.247471 235.507137,81.3142251 234.532401,82.388535 C233.559147,83.462845 232.031863,84 229.950549,84 C227.396682,84 225.601271,82.6973273 224.561355,80.0934183" id="Fill-12" fill="#FFFFFF"></path>
                <path d="M281.679959,51.7707006 C279.976483,54.571375 279.124744,57.9580367 279.124744,61.9278132 L279.124744,62.1231423 C283.065139,61.212564 286.171478,59.8452604 288.443763,58.0212314 C290.714574,56.1986387 291.850716,54.0830523 291.850716,51.6730361 C291.850716,50.4364306 291.5,49.4439865 290.797095,48.6942675 C290.097137,47.9459848 289.145194,47.5711253 287.94274,47.5711253 C285.470047,47.5711253 283.383436,48.9714625 281.679959,51.7707006 M315.248466,62.9030224 C315.749489,63.6843387 316,64.7586487 316,66.1273885 C316,68.7312976 315.363407,70.7506557 314.096115,72.181154 C311.623421,75.1110903 308.133947,77.8141002 303.624744,80.2887473 C299.115542,82.7648308 294.289516,84 289.145194,84 C282.130879,84 276.68447,82.1443737 272.811861,78.433121 C268.937778,74.7218684 267,69.6433121 267,63.1974522 C267,58.7048832 267.966679,54.5225428 269.90593,50.6475584 C271.842235,46.7740102 274.530073,43.6975771 277.972393,41.418259 C281.411765,39.1403772 285.303531,38 289.646217,38 C293.518826,38 296.626639,39.1231423 298.963762,41.3694268 C301.302358,43.6157113 302.472393,46.660547 302.472393,50.5010616 C302.472393,54.9936306 300.819018,58.85138 297.51227,62.07431 C294.205521,65.2958037 288.608805,67.853753 280.728016,69.7409766 C282.396127,72.7355439 285.571725,74.2335456 290.24597,74.2335456 C293.253579,74.2335456 296.676741,73.2080679 300.518405,71.1571125 C304.360069,69.1061571 307.683027,66.4203822 310.488753,63.0997877 C311.290389,62.1877732 312.192229,61.7324841 313.194274,61.7324841 C314.062222,61.7324841 314.747444,62.1231423 315.248466,62.9030224" id="Fill-14" fill="#FFFFFF"></path>
            </g>
        </g>
    </g>
</svg>