<?xml version="1.0" encoding="UTF-8"?>
<svg width="575px" height="36px" viewBox="0 0 575 36" version="1.1" xmlns="http://www.w3.org/2000/svg" xmlns:xlink="http://www.w3.org/1999/xlink">
    <!-- Generator: Sketch 52.6 (67491) - http://www.bohemiancoding.com/sketch -->
    <title>border-decor</title>
    <desc>Created with Sketch.</desc>
    <defs>
        <polygon id="path-1" points="0 0.490662394 287.668138 0.490662394 287.668138 35.9997025 0 35.9997025"></polygon>
        <polygon id="path-3" points="0.619805022 0.49042776 288.288 0.49042776 288.288 35.9998042 0.619805022 35.9998042"></polygon>
    </defs>
    <g id="Page-1" stroke="none" stroke-width="1" fill="none" fill-rule="evenodd">
        <g id="border-decor" transform="translate(0.000000, -1.000000)">
            <g id="Group-3" transform="translate(0.000000, 0.509500)">
                <mask id="mask-2" fill="white">
                    <use xlink:href="#path-1"></use>
                </mask>
                <g id="Clip-2"></g>
                <path d="M121.8727,8.2661 C120.8307,9.5941 121.1597,10.6121 121.8507,11.7331 C122.7807,10.5931 122.9227,9.5701 121.8727,8.2661 M9.9617,17.5121 C10.0077,17.1111 10.0707,16.7971 10.0737,16.4821 C10.0827,15.4421 10.7237,14.9101 11.6277,14.8091 C12.4367,14.7181 13.3307,14.6491 13.9107,15.5081 C14.4847,16.3591 14.5657,17.5101 14.0147,18.2561 C13.1727,19.3951 12.1677,20.1391 10.6127,19.8101 C8.9517,19.4581 7.4917,18.8761 6.9277,17.0981 C6.2277,14.8901 6.2277,12.7571 8.0967,11.0791 C10.0447,9.3291 12.3477,8.9211 14.7487,9.9351 C17.6207,11.1491 19.3167,13.3121 19.5277,16.5261 C19.8777,21.8411 16.1927,26.2231 10.9997,27.0601 C4.8637,28.0481 -0.0853,22.9721 0.0007,16.5331 C0.0567,12.3871 1.5737,8.9961 4.8517,6.2541 C8.7587,2.9851 13.0707,1.5281 18.0617,2.5011 C19.8257,2.8451 21.5677,3.5281 23.1917,4.3181 C26.8487,6.0971 30.4667,7.9641 34.0197,9.9411 C36.4077,11.2711 38.7677,12.7041 40.9417,14.3531 C44.0637,16.7191 47.6407,18.1681 51.1127,19.8281 C56.7997,22.5461 62.9447,23.6461 69.0677,24.9151 C73.7777,25.8921 78.5317,26.2921 83.2707,26.3771 C87.3017,26.4491 91.3837,25.7971 95.3807,25.1061 C98.5487,24.5581 101.6857,23.6441 104.7207,22.5671 C108.4167,21.2561 112.0547,19.7331 115.5927,18.0421 C117.1937,17.2761 118.4947,15.8811 119.9097,14.7891 C119.3527,12.8991 118.7527,11.1581 119.3527,9.3261 C119.5667,8.6701 119.8027,7.9921 120.1807,7.4251 C121.3107,5.7241 123.3997,5.8491 124.4437,7.6171 C125.4177,9.2651 125.0097,10.8621 124.2847,12.4411 C124.1127,12.8141 123.8247,13.1351 123.4967,13.6191 C125.0497,15.8051 126.9617,17.6031 129.1747,19.0991 C134.1697,22.4761 139.6567,22.8491 145.2537,21.3041 C150.0467,19.9821 154.7957,18.4191 159.4297,16.6191 C167.2967,13.5631 175.3447,11.1441 183.5347,9.1861 C191.5137,7.2801 199.5167,5.4701 207.5367,3.7511 C210.3387,3.1511 213.2227,2.9241 216.0737,2.5721 C220.2467,2.0561 224.4197,1.5471 228.6017,1.1051 C230.4817,0.9061 232.3797,0.8411 234.2707,0.7731 C237.6247,0.6521 240.9847,0.4001 244.3307,0.5241 C248.3827,0.6741 252.4197,1.2001 256.4687,1.4871 C262.8487,1.9411 268.7927,3.9551 274.4917,6.6691 C279.5927,9.0981 283.9337,12.5741 286.2687,17.8701 C287.5347,20.7431 288.2197,23.8991 287.1117,27.0911 C286.6997,28.2771 286.3617,29.5261 285.7267,30.5891 C283.6447,34.0701 280.3397,35.5981 276.4347,35.9211 C274.9207,36.0461 273.3687,36.0241 271.8607,35.8401 C268.8537,35.4741 266.7657,33.7101 265.2467,31.1561 C263.3787,28.0151 264.2957,25.2151 266.2597,22.5621 C267.9927,20.2211 270.4677,19.6511 273.1907,19.9701 C274.8997,20.1691 277.5907,23.0191 277.8367,24.7001 C278.0237,25.9801 276.1607,28.2791 274.8727,28.3581 C273.9597,28.4141 272.5357,27.1481 272.4007,26.1331 C272.2527,25.0141 273.0547,24.6971 273.8947,24.4441 C274.2257,24.3441 274.5737,24.2981 274.9237,24.2261 C273.9727,22.0921 271.6997,21.6301 270.0497,23.2621 C267.4107,25.8721 267.9017,30.0921 270.6617,31.6371 C272.3987,32.6101 274.0927,33.6751 276.1777,33.2541 C277.0987,33.0681 277.9657,32.5851 278.8367,32.1911 C279.1467,32.0511 279.3637,31.6731 279.6767,31.5771 C281.9267,30.8841 282.7257,28.9571 283.3967,27.0431 C284.0547,25.1691 283.5647,23.2811 282.8137,21.5071 C280.8627,16.9001 277.4267,13.6871 273.0737,11.3981 C267.7527,8.6011 262.0177,6.9311 256.1827,5.7211 C249.9237,4.4231 243.5757,3.7801 237.1457,4.1931 C232.8797,4.4671 228.5837,4.3271 224.3287,4.6991 C219.6537,5.1071 214.9987,5.8071 210.3597,6.5361 C206.2097,7.1901 202.0867,8.0261 197.9647,8.8451 C196.2487,9.1851 194.5597,9.6711 192.8647,10.1201 C188.1907,11.3581 183.4697,12.4521 178.8607,13.9001 C173.6497,15.5361 168.5567,17.5431 163.3847,19.3041 C156.4877,21.6531 149.7207,24.4191 142.4747,25.6441 C137.8857,26.4191 133.4147,26.5351 129.1057,24.4091 C126.1997,22.9741 123.8877,20.9111 122.1357,18.1961 C121.8047,17.6831 121.4077,17.2111 121.1657,16.8881 C118.1907,19.1161 115.4767,21.4721 112.4577,23.3341 C108.0397,26.0581 103.3727,28.3911 98.2217,29.4281 C95.6887,29.9381 93.0987,30.3061 90.5217,30.4121 C86.6047,30.5741 82.6507,30.7291 78.7577,30.3821 C73.8857,29.9471 69.0107,29.3991 64.2797,27.8721 C60.0777,26.5161 55.8277,25.3471 51.7987,23.4881 C47.0697,21.3071 42.6177,18.6571 38.1997,15.9211 C33.0787,12.7501 27.9467,9.5861 22.7087,6.6151 C19.6717,4.8921 16.2467,4.1871 12.7577,4.6131 C9.0927,5.0611 6.5667,7.3731 4.5937,10.3431 C2.1757,13.9821 2.5727,17.6561 5.0777,20.9331 C7.7967,24.4881 12.7357,25.3081 16.0787,21.7651 C17.6367,20.1151 18.2617,17.8811 17.5957,15.6711 C16.9437,13.5091 15.2827,12.2261 12.9347,12.0131 C12.6567,11.9881 12.3877,11.8751 12.1097,11.8461 C10.2377,11.6471 9.1187,12.1441 8.5667,13.4031 C7.9797,14.7441 8.4287,16.1501 9.9617,17.5121" id="Fill-1" fill="#ADADAD" mask="url(#mask-2)"></path>
            </g>
            <g id="Group-6" transform="translate(286.000000, 0.509500)">
                <mask id="mask-4" fill="white">
                    <use xlink:href="#path-3"></use>
                </mask>
                <g id="Clip-5"></g>
                <path d="M166.4372,11.7334 C167.1282,10.6124 167.4572,9.5944 166.4152,8.2664 C165.3652,9.5704 165.5072,10.5934 166.4372,11.7334 M279.7212,13.4024 C279.1692,12.1444 278.0502,11.6474 276.1782,11.8454 C275.9002,11.8754 275.6302,11.9874 275.3532,12.0134 C273.0052,12.2264 271.3432,13.5094 270.6932,15.6714 C270.0272,17.8814 270.6522,20.1144 272.2092,21.7654 C275.5522,25.3084 280.4912,24.4884 283.2092,20.9324 C285.7152,17.6564 286.1122,13.9824 283.6942,10.3424 C281.7212,7.3734 279.1952,5.0614 275.5302,4.6134 C272.0402,4.1874 268.6162,4.8924 265.5792,6.6144 C260.3412,9.5864 255.2092,12.7504 250.0872,15.9214 C245.6702,18.6574 241.2172,21.3074 236.4902,23.4884 C232.4602,25.3474 228.2102,26.5164 224.0082,27.8724 C219.2772,29.3994 214.4022,29.9474 209.5302,30.3814 C205.6372,30.7294 201.6832,30.5744 197.7662,30.4124 C195.1892,30.3064 192.5992,29.9384 190.0672,29.4284 C184.9152,28.3914 180.2472,26.0574 175.8302,23.3344 C172.8112,21.4724 170.0972,19.1164 167.1212,16.8884 C166.8802,17.2114 166.4832,17.6824 166.1522,18.1964 C164.4002,20.9114 162.0882,22.9744 159.1812,24.4084 C154.8722,26.5354 150.4022,26.4194 145.8142,25.6434 C138.5672,24.4194 131.8002,21.6524 124.9042,19.3044 C119.7312,17.5434 114.6372,15.5364 109.4272,13.9004 C104.8182,12.4514 100.0972,11.3574 95.4222,10.1204 C93.7292,9.6714 92.0392,9.1854 90.3232,8.8444 C86.2012,8.0264 82.0792,7.1904 77.9282,6.5364 C73.2892,5.8064 68.6332,5.1074 63.9582,4.6984 C59.7042,4.3264 55.4082,4.4664 51.1422,4.1934 C44.7122,3.7804 38.3652,4.4224 32.1052,5.7214 C26.2702,6.9314 20.5352,8.6014 15.2142,11.3984 C10.8622,13.6874 7.4252,16.9004 5.4742,21.5074 C4.7222,23.2814 4.2332,25.1694 4.8902,27.0434 C5.5622,28.9574 6.3612,30.8844 8.6112,31.5774 C8.9232,31.6734 9.1412,32.0514 9.4512,32.1914 C10.3222,32.5854 11.1892,33.0684 12.1112,33.2534 C14.1952,33.6744 15.8892,32.6094 17.6262,31.6374 C20.3862,30.0914 20.8772,25.8724 18.2382,23.2624 C16.5872,21.6304 14.3152,22.0924 13.3642,24.2264 C13.7142,24.2984 14.0622,24.3444 14.3932,24.4434 C15.2332,24.6964 16.0352,25.0134 15.8862,26.1334 C15.7512,27.1484 14.3292,28.4144 13.4152,28.3574 C12.1272,28.2794 10.2642,25.9804 10.4522,24.7004 C10.6982,23.0184 13.3872,20.1694 15.0962,19.9694 C17.8202,19.6514 20.2952,20.2214 22.0282,22.5624 C23.9922,25.2154 24.9092,28.0144 23.0412,31.1554 C21.5222,33.7104 19.4342,35.4744 16.4272,35.8404 C14.9192,36.0244 13.3672,36.0464 11.8522,35.9204 C7.9482,35.5984 4.6432,34.0704 2.5622,30.5884 C1.9262,29.5264 1.5872,28.2774 1.1762,27.0914 C0.0682,23.8994 0.7532,20.7434 2.0202,17.8704 C4.3542,12.5734 8.6962,9.0984 13.7962,6.6694 C19.4952,3.9554 25.4392,1.9414 31.8192,1.4874 C35.8682,1.1994 39.9052,0.6744 43.9572,0.5234 C47.3032,0.4004 50.6642,0.6524 54.0162,0.7734 C55.9092,0.8414 57.8062,0.9054 59.6872,1.1054 C63.8682,1.5474 68.0412,2.0564 72.2142,2.5714 C75.0662,2.9244 77.9502,3.1504 80.7502,3.7514 C88.7722,5.4694 96.7752,7.2794 104.7522,9.1864 C112.9432,11.1434 120.9922,13.5634 128.8582,16.6194 C133.4932,18.4194 138.2412,19.9824 143.0342,21.3044 C148.6302,22.8484 154.1192,22.4764 159.1132,19.0994 C161.3272,17.6034 163.2382,15.8054 164.7912,13.6184 C164.4622,13.1354 164.1752,12.8144 164.0032,12.4414 C163.2792,10.8624 162.8712,9.2654 163.8442,7.6174 C164.8882,5.8494 166.9772,5.7244 168.1082,7.4244 C168.4852,7.9924 168.7212,8.6704 168.9352,9.3264 C169.5352,11.1584 168.9352,12.8984 168.3772,14.7894 C169.7922,15.8814 171.0932,17.2754 172.6962,18.0424 C176.2342,19.7334 179.8712,21.2554 183.5682,22.5664 C186.6032,23.6434 189.7402,24.5574 192.9072,25.1064 C196.9042,25.7974 200.9862,26.4494 205.0172,26.3774 C209.7552,26.2924 214.5092,25.8914 219.2202,24.9154 C225.3432,23.6464 231.4882,22.5464 237.1752,19.8284 C240.6482,18.1684 244.2242,16.7194 247.3452,14.3524 C249.5202,12.7044 251.8802,11.2714 254.2682,9.9414 C257.8212,7.9634 261.4392,6.0964 265.0952,4.3184 C266.7202,3.5274 268.4622,2.8454 270.2262,2.5014 C275.2172,1.5274 279.5292,2.9844 283.4372,6.2544 C286.7132,8.9964 288.2312,12.3874 288.2872,16.5334 C288.3732,22.9714 283.4242,28.0484 277.2872,27.0604 C272.0952,26.2234 268.4102,21.8414 268.7592,16.5264 C268.9712,13.3124 270.6672,11.1494 273.5402,9.9354 C275.9412,8.9204 278.2442,9.3284 280.1922,11.0794 C282.0602,12.7574 282.0612,14.8904 281.3612,17.0974 C280.7962,18.8764 279.3352,19.4584 277.6752,19.8104 C276.1212,20.1394 275.1152,19.3954 274.2742,18.2554 C273.7222,17.5094 273.8022,16.3594 274.3762,15.5084 C274.9572,14.6484 275.8522,14.7184 276.6602,14.8094 C277.5642,14.9094 278.2052,15.4424 278.2142,16.4824 C278.2162,16.7964 278.2812,17.1114 278.3262,17.5124 C279.8602,16.1504 280.3092,14.7434 279.7212,13.4024" id="Fill-4" fill="#ADADAD" mask="url(#mask-4)"></path>
            </g>
        </g>
    </g>
</svg>